<svg width="512" height="436" viewBox="0 0 512 436" fill="none" xmlns="http://www.w3.org/2000/svg">
<path d="M255.999 436.419C261.521 436.419 265.999 431.942 265.999 426.419C265.999 420.897 261.521 416.419 255.999 416.419C250.476 416.419 245.999 420.897 245.999 426.419C245.999 431.942 250.476 436.419 255.999 436.419Z" fill="#FFFF00"/>
<path d="M510.854 41.6557C507.97 28.0208 499.958 16.3349 488.302 8.75493C479.819 3.22797 469.981 0.306997 459.855 0.306997C445.23 0.306997 431.541 6.34695 421.783 16.8009C411.995 6.15795 398.181 0.000999443 383.431 0.000999443C373.284 0.000999443 363.428 2.93598 354.935 8.48493C348.62 12.6069 343.401 17.9259 339.491 24.0438C329.424 9.15893 312.565 0.000999443 294.036 0.000999443C271.686 0.0269992 251.782 13.3959 243.326 34.0597C243.308 34.1017 243.292 34.1447 243.274 34.1867L242.863 35.2297C242.85 35.2637 242.838 35.2967 242.825 35.3307L214.423 109.901V52.1426C214.423 23.3908 191.032 0 162.28 0C150.191 0 138.566 4.21597 129.314 11.7779C116.064 4.04897 101.103 0 85.5829 0H52.1701C52.1221 0 52.0751 0 52.0261 0C38.2923 0 24.8894 5.57296 15.2844 15.2579C5.6495 24.8148 -0.0644508 38.6207 0.000548648 52.1426V172.237C0.000548648 200.987 23.3914 224.378 52.1431 224.378C80.8949 224.378 104.286 200.987 104.286 172.237V170.045C106.256 169.613 108.207 169.112 110.14 168.543V172.143C110.14 194.754 124.502 214.312 145.289 221.434C128.887 244.373 120 271.837 120 300.423C120 328.503 128.488 355.461 144.547 378.381C160.238 400.777 181.981 417.758 207.425 427.489C208.6 427.939 209.808 428.152 210.995 428.152C215.019 428.152 218.813 425.705 220.337 421.721C222.311 416.563 219.728 410.781 214.569 408.809C169.966 391.749 139.999 348.193 139.999 300.423C139.999 272.324 150.059 245.492 168.404 224.379C170.34 224.388 192.225 224.345 204.627 224.285C211.745 224.244 218.785 222.731 225.272 219.875C226.146 220.265 227.027 220.629 227.91 220.965C233.861 223.231 240.105 224.379 246.472 224.379C266.454 224.379 284.792 212.71 293.438 194.891H294.335C302.952 212.702 321.281 224.379 341.302 224.379C342.051 224.379 342.797 224.361 343.541 224.329C361.925 245.439 372 272.273 372 300.423C372 348.189 342.032 391.745 297.43 408.807C292.271 410.78 289.689 416.561 291.662 421.719C293.185 425.702 296.979 428.15 301.004 428.15C302.192 428.15 303.4 427.937 304.574 427.487C330.016 417.756 351.759 400.774 367.45 378.38C383.51 355.46 391.999 328.503 391.999 300.424C391.999 270.701 382.417 242.229 364.768 218.78C371.243 215.525 376.914 211.027 381.476 205.5C391.147 217.202 405.693 224.345 421.656 224.38C450.33 224.38 473.72 201.049 473.798 172.368L473.907 126.428L503.544 80.8944C511.138 69.2265 513.736 55.2926 510.854 41.6557V41.6557ZM486.781 69.9784C486.781 69.9794 486.78 69.9805 486.78 69.9815L455.531 117.992C454.478 119.608 453.917 121.495 453.912 123.424L453.796 172.316C453.748 189.995 439.33 204.379 421.645 204.379C407.569 204.348 395.255 195.322 391.004 181.921C389.689 177.775 385.846 174.954 381.496 174.944C381.488 174.944 381.48 174.944 381.473 174.944C377.133 174.944 373.288 177.744 371.955 181.876C371.522 183.217 371.071 184.406 370.595 185.473C367.047 193.297 360.67 199.28 352.646 202.317C349.02 203.685 345.203 204.379 341.3 204.379C328.001 204.379 315.914 196.022 311.231 183.609L310.399 181.386C308.937 177.48 305.205 174.892 301.034 174.892H286.747C282.584 174.892 278.855 177.472 277.389 181.368L276.52 183.677C271.794 196.06 259.719 204.38 246.471 204.38C242.546 204.38 238.696 203.672 235.022 202.273C233.428 201.668 231.844 200.91 230.315 200.022C227.216 198.223 223.395 198.22 220.293 200.011C215.505 202.777 210.049 204.255 204.523 204.286C192.156 204.346 159.601 204.29 156.839 203.818C141.368 201.167 130.141 187.846 130.141 172.144V153.885C130.141 150.416 128.343 147.196 125.391 145.374C123.787 144.384 121.966 143.885 120.141 143.885C118.607 143.885 117.069 144.237 115.654 144.949C108.558 148.511 100.995 150.762 93.1728 151.639C88.1129 152.206 84.2869 156.485 84.2869 161.577V172.239C84.2869 189.961 69.868 204.38 52.1441 204.38C34.4203 204.38 20.0014 189.961 20.0014 172.239V52.0946C19.9614 43.7787 23.4644 35.3167 29.4393 29.3898C35.2753 23.5058 43.7152 19.9998 52.0601 19.9998H52.1441H85.5839C99.7098 19.9998 113.232 24.3548 124.689 32.5937C128.875 35.6057 134.667 34.9377 138.061 31.0518C144.191 24.0288 153.019 19.9998 162.281 19.9998C180.005 19.9998 194.424 34.4187 194.424 52.1426V129.999C194.424 135.512 198.886 139.985 204.399 139.999C207.587 140.007 210.744 140.49 213.785 141.435C218.831 143.003 224.218 140.378 226.096 135.445L261.494 42.5067L261.859 41.5767C267.243 28.4828 279.876 20.0158 294.048 19.9998C308.264 19.9998 320.935 28.4808 326.335 41.6167C326.438 41.8657 326.557 42.1497 326.687 42.5017L331.965 56.4926C333.683 61.0445 338.429 63.6965 343.2 62.7855C347.976 61.8715 351.403 57.6535 351.319 52.7906C351.127 41.6057 356.565 31.3038 365.871 25.2288C371.107 21.8078 377.18 19.9998 383.432 19.9998C394.324 19.9998 404.39 25.4468 410.355 34.5727L413.379 39.1977C415.227 42.0237 418.374 43.7257 421.749 43.7257H421.756C425.134 43.7237 428.282 42.0157 430.126 39.1867L432.913 34.9127C438.862 25.7668 448.935 20.3058 459.855 20.3058C466.095 20.3058 472.158 22.1058 477.392 25.5158C484.575 30.1868 489.509 37.3887 491.287 45.7916C493.063 54.2006 491.463 62.7895 486.781 69.9784V69.9784Z" fill="#FFFF00"/>
<path d="M305.964 50.2963C305.93 50.2043 305.893 50.1113 305.856 50.0213C303.884 45.2333 299.268 42.1414 294.091 42.1414C294.087 42.1414 294.081 42.1414 294.077 42.1414C288.894 42.1474 284.278 45.2493 282.316 50.0453C282.285 50.1203 282.254 50.1963 282.226 50.2733L237.131 168.678C235.165 173.839 237.755 179.617 242.916 181.582C248.077 183.547 253.854 180.958 255.82 175.797L264.598 152.748H323.252L331.94 175.769C333.451 179.773 337.255 182.241 341.297 182.241C342.47 182.241 343.663 182.033 344.826 181.594C349.993 179.645 352.6 173.875 350.65 168.707L305.964 50.2963ZM272.216 132.749L294.06 75.3961L315.705 132.749H272.216Z" fill="#FFFF00"/>
<path d="M204.334 162.137C204.316 162.137 204.296 162.137 204.277 162.137C194.782 162.191 181.29 162.24 172.279 162.239V52.1413C172.279 46.6193 167.801 42.1414 162.279 42.1414C156.756 42.1414 152.279 46.6193 152.279 52.1413V172.137C152.279 177.008 155.789 181.17 160.59 181.993C161.313 182.117 162.05 182.244 175.009 182.244C181.372 182.244 190.687 182.213 204.389 182.137C209.912 182.106 214.364 177.604 214.333 172.081C214.302 166.577 209.832 162.137 204.334 162.137V162.137Z" fill="#FFFF00"/>
<path d="M465.3 44.0644C460.672 41.0504 454.478 42.3614 451.464 46.9903L421.785 92.582L391.81 46.6753C388.791 42.0514 382.596 40.7474 377.97 43.7694C373.345 46.7883 372.044 52.9853 375.064 57.6092L411.79 113.857L411.647 172.214C411.633 177.736 416.1 182.225 421.623 182.238H421.648C427.159 182.238 431.633 177.777 431.647 172.262L431.79 113.871L468.225 57.9002C471.239 53.2723 469.929 47.0773 465.3 44.0644Z" fill="#FFFF00"/>
<path d="M85.5831 42.142H52.1434C46.7704 42.038 42.0504 46.778 42.1434 52.1419V172.239C42.1434 177.761 46.6214 182.239 52.1434 182.239C57.6653 182.239 62.1433 177.761 62.1433 172.239V130.017C69.8642 129.975 80.2281 129.924 85.5831 129.924C110.151 129.924 130.139 110.235 130.139 86.0327C130.138 61.8308 110.151 42.142 85.5831 42.142V42.142ZM85.5831 109.924C80.2551 109.924 70.0332 109.974 62.3183 110.016C62.2763 102.09 62.2253 91.4706 62.2253 86.0337C62.2253 81.4397 62.1963 70.3908 62.1723 62.1418H85.5821C98.893 62.1418 110.138 73.0828 110.138 86.0337C110.138 98.9845 98.893 109.924 85.5831 109.924Z" fill="#FFFF00"/>
<path d="M312.8 300.424C312.8 296.852 310.894 293.55 307.8 291.764L234.188 249.264C231.094 247.477 227.282 247.477 224.188 249.264C221.094 251.05 219.188 254.352 219.188 257.924V342.924C219.188 346.496 221.094 349.798 224.188 351.584C225.735 352.478 227.461 352.924 229.188 352.924C230.915 352.924 232.641 352.478 234.188 351.584L307.8 309.084C310.894 307.298 312.8 303.996 312.8 300.424ZM239.188 325.604V275.245L282.8 300.425L239.188 325.604Z" fill="#FFFF00"/>
</svg>
